<?xml version="1.0" ?><svg id="green_donation" viewBox="0 0 512 512" xmlns="http://www.w3.org/2000/svg"><path d="M259.3418,251.9372a70.2744,70.2744,0,1,0-50.2744-119.3067V99.0856a10,10,0,0,0-20,0v82.5772A70.3545,70.3545,0,0,0,259.3418,251.9372Zm0-120.5488a50.2744,50.2744,0,1,1-50.2744,50.2744A50.331,50.331,0,0,1,259.3418,131.3884Z"/><path d="M246.043,209.1315h17.6152a16.1987,16.1987,0,0,0,12.0635-27.0088l-10.29-11.4834h8.2491a10,10,0,0,0,0-20H256.92a16.199,16.199,0,0,0-12.0635,27.0088l10.29,11.4834H246.043a10,10,0,0,0,0,20Z"/><path d="M291.5977,357.9684a10,10,0,1,0,7.6113,18.4942,142.16,142.16,0,0,0,55.52-41.0117c15.8389-19.2608,25.3193-41.5538,27.4141-64.47a9.9986,9.9986,0,0,0-7.1309-10.5019,100.4989,100.4989,0,0,0-119.01,52.8168,100.5051,100.5051,0,0,0-119.0151-52.8168,9.9986,9.9986,0,0,0-7.1309,10.5019c2.085,22.8125,11.95,45.1524,28.5274,64.6035a150.9133,150.9133,0,0,0,56.4072,40.878,10,10,0,1,0,7.6113-18.4942c-42.0966-17.3252-65.3769-51.3613-71.3535-80.3027a80.5125,80.5125,0,0,1,94.9053,79.2461c0,.3068.0188.6089.0459.9086V444.779H147.252a10,10,0,1,0,0,20h224.18a10,10,0,0,0,0-20H266V357.7934c.0271-.3.0459-.6021.0459-.9089A80.5124,80.5124,0,0,1,361.01,277.6764C354.4121,311.652,327.4648,343.2067,291.5977,357.9684Z"/><path d="M317.624,122.2526a10,10,0,0,0,10-10V57.22a10,10,0,1,0-20,0v55.0322A10.0005,10.0005,0,0,0,317.624,122.2526Z"/><path d="M259.3418,100.3034a10,10,0,0,0,10-10V57.22a10,10,0,0,0-20,0v33.083A10,10,0,0,0,259.3418,100.3034Z"/></svg>